<?xml version="1.0"?>
<svg xmlns="http://www.w3.org/2000/svg" id="Layer_1" data-name="Layer 1" viewBox="0 0 512 512" width="512" height="512"><path d="M252.25,474.28a6,6,0,0,0,0-12h-78.7c-13.2,0-24.7-1.74-34.188-5.172a6,6,0,0,0-4.084,11.284c10.8,3.907,23.674,5.888,38.272,5.888Z"/><path d="M122.257,447.385a44.239,44.239,0,0,1-8.614-10.012,6,6,0,1,0-10.166,6.375,56.236,56.236,0,0,0,10.946,12.728,6,6,0,0,0,7.834-9.091Z"/><path d="M160.044,96.63a5.973,5.973,0,0,0,3.674-1.26,156.182,156.182,0,0,1,63.708-29.425,6,6,0,1,0-2.432-11.751,168.241,168.241,0,0,0-68.632,31.7,6,6,0,0,0,3.682,10.74Z"/><path d="M247.484,63.13q.215,0,.432-.015c3.684-.262,7.413-.4,11.084-.4a6,6,0,0,0,0-12c-3.953,0-7.969.143-11.936.425a6,6,0,0,0,.42,11.985Z"/><path d="M338.45,496.28c28.447,0,53.015-7.336,71.046-21.216,18.471-14.218,28.813-34.5,30.111-58.908a27.315,27.315,0,0,0,3.413-53.765v-30.2a6,6,0,0,0-6-6h-8.26v-24.3h7.73a22.7,22.7,0,0,0,22.68-22.67V253.71a22.7,22.7,0,0,0-22.68-22.67h-3.11V210.527a16.315,16.315,0,0,0,11.769-16.66C439.253,93.971,356.169,15.72,256,15.72S72.747,93.971,66.851,193.869A16.315,16.315,0,0,0,78.62,210.527V231.04H75.51a22.7,22.7,0,0,0-22.68,22.67v25.51a22.7,22.7,0,0,0,22.68,22.67h7.73v24.3H74.98a6,6,0,0,0-6,6V362.4A27.406,27.406,0,0,0,47.89,388.98a27.328,27.328,0,0,0,24.5,27.176c1.3,24.4,11.64,44.69,30.111,58.908,18.031,13.88,42.6,21.216,71.046,21.216Zm98.518-122.6a15.31,15.31,0,0,1-.168,30.62H416.318c7.879-11.05,12.161-21.3,12.829-30.63h7.522C436.769,373.676,436.868,373.679,436.968,373.68ZM399.4,406.368c-11.109,12.808-24.67,23.927-32.451,29.9A141.806,141.806,0,0,0,351.1,406.843a139.192,139.192,0,0,0-32.973-33.173H417.1C416.131,382.837,410.113,394.006,399.4,406.368ZM256,27.72c93.825,0,171.647,73.291,177.171,166.852A4.375,4.375,0,0,1,428.8,199.2H185.49a6,6,0,0,0,0,12H421.38v19.84H90.62V211.2H145a6,6,0,0,0,0-12H83.2a4.375,4.375,0,0,1-4.371-4.626C84.353,101.011,162.175,27.72,256,27.72ZM75.51,243.04H436.49a10.688,10.688,0,0,1,10.3,7.873c-14.049,1.15-22.226,6.029-29.55,10.4-8.055,4.807-15.013,8.958-29.8,8.958s-21.731-4.151-29.785-8.957c-8.367-4.993-17.851-10.653-35.935-10.653s-27.576,5.66-35.946,10.654c-8.053,4.806-15.009,8.956-29.784,8.956s-21.731-4.151-29.786-8.957c-8.366-4.993-17.85-10.653-35.934-10.653s-27.568,5.659-35.934,10.652c-8.055,4.807-15.01,8.958-29.786,8.958s-21.731-4.151-29.784-8.957c-7.323-4.37-15.5-9.25-29.551-10.4A10.688,10.688,0,0,1,75.51,243.04Zm0,46.85a10.687,10.687,0,0,1-10.68-10.67V262.926c10.82.974,16.911,4.589,23.786,8.692,8.366,4.993,17.85,10.652,35.934,10.652s27.568-5.66,35.935-10.653c8.054-4.806,15.009-8.957,29.785-8.957s21.731,4.151,29.786,8.957c8.366,4.993,17.85,10.653,35.934,10.653s27.567-5.659,35.933-10.651c8.056-4.807,15.015-8.959,29.8-8.959s21.731,4.151,29.786,8.957c8.366,4.993,17.85,10.653,35.934,10.653s27.576-5.66,35.945-10.653c6.874-4.1,12.966-7.717,23.785-8.691V279.22a10.687,10.687,0,0,1-10.68,10.67Zm5.47,48.3H320a6,6,0,0,0,0-12H95.24v-24.3H416.76v24.3H354a6,6,0,0,0,0,12h77.02v23.48H80.98Zm3.462,78.11H130a6,6,0,0,0,0-12H75.2a15.31,15.31,0,0,1-.163-30.62c.1,0,.2,0,.294-.01H294.505c4.316,1.935,22.473,10.86,39.413,30.63H167a6,6,0,1,0,0,12H343.006a131.408,131.408,0,0,1,15.362,31.458,6,6,0,0,0,9.108,3.034c.916-.633,21.9-15.255,39.16-34.492h20.922c-1.3,20.459-10,37.413-25.381,49.255-15.688,12.075-38.32,18.725-63.727,18.725H173.55c-25.407,0-48.039-6.65-63.727-18.725C94.439,453.713,85.745,436.759,84.442,416.3Z"/></svg>
