<?xml version="1.0" encoding="iso-8859-1"?>
<!-- Generator: Adobe Illustrator 19.0.0, SVG Export Plug-In . SVG Version: 6.00 Build 0)  -->
<svg version="1.1" id="Capa_1" xmlns="http://www.w3.org/2000/svg" xmlns:xlink="http://www.w3.org/1999/xlink" x="0px" y="0px"
	 viewBox="0 0 512.001 512.001" style="enable-background:new 0 0 512.001 512.001;" xml:space="preserve">
<g>
	<g>
		<circle cx="256.004" cy="300.623" r="8.136"/>
	</g>
</g>
<g>
	<g>
		<path d="M458.548,469.868c-3.654,0-7.23-0.379-10.698-1.132c34.327-57.914-6.917-131.62-73.954-133.017
			c-27.437-0.57-53.669,11.804-70.776,33.247l-5.802-11.906c-7.883-16.179-2.948-27.862-5.261-54.947l67.438-131.16
			c40.493-78.762,4.694-144.513,2.528-158.473c-2.182-7.008-8.322-11.888-15.643-12.432c-0.458-0.034-0.914-0.05-1.367-0.049
			c-6.794,0.01-12.948,3.838-15.941,10.034c-0.082,0.171-0.158,0.345-0.229,0.522L256,195.969
			C179.846,2.154,183.165,10.526,182.928,10.036c-7.002-14.489-28.167-12.917-32.949,2.447
			c-2.173,14.004-37.962,79.719,2.527,158.473l25.318,49.243c1.9,3.695,6.434,5.152,10.129,3.249
			c3.695-1.899,5.15-6.434,3.249-10.129l-25.318-49.243c-37.244-72.438-3.776-133.048-1.542-147.121
			c0.727-2.337,3.823-2.566,4.947-0.558l78.632,200.143c-17.95,46.246-20.557,51.116-23.514,61.354l-17.147-33.349
			c-1.9-3.694-6.432-5.148-10.129-3.249c-3.695,1.898-5.15,6.434-3.249,10.129l26.057,50.679
			c-2.146,25.374,2.699,38.637-5.254,54.96l-5.802,11.906c-17.108-21.443-43.328-33.799-70.776-33.247
			C71.065,337.119,29.83,410.83,64.153,468.739c-3.468,0.753-7.043,1.132-10.698,1.132c-11.614-0.001-21.062,9.447-21.062,21.059
			c0,11.612,9.448,21.06,21.06,21.06c15.657,0,30.361-3.725,43.775-11.078c54.015,30.054,122.384-3.984,130.182-66.015
			c1.943-15.448,7.394-19.621,28.59-62.653c21.194,43.025,26.655,47.249,28.59,62.653c1.55,12.326,5.63,23.988,12.128,34.66
			c2.158,3.547,6.785,4.671,10.337,2.513c3.548-2.16,4.673-6.788,2.513-10.337c-5.385-8.846-8.767-18.508-10.051-28.713
			c-2.467-19.63-9.653-25.546-35.057-77.227c3.328-6.472,9.788-19.038,13.128-25.533c0.341,3.863-1.595,17.374,6.21,33.39
			l7.176,14.727c4.316,8.851,16.456,9.938,22.341,2.008c13.829-18.637,35.702-29.642,58.76-29.642
			c60.417,0,94.635,69.712,57.988,117.491c-2.985,3.891-1.501,9.551,2.995,11.487c8.005,3.444,16.58,5.19,25.492,5.19
			c3.319,0,6.017,2.699,6.017,6.017s-2.699,6.017-6.017,6.017c-14.395,0-27.81-3.755-39.874-11.16
			c-2.437-1.495-5.509-1.479-7.932,0.038c-23.841,14.953-54.845,15.07-79.113-1.102c-3.455-2.302-8.125-1.369-10.43,2.088
			c-2.304,3.457-1.369,8.127,2.088,10.43c27.763,18.502,63.124,19.456,91.486,3.67c13.416,7.353,28.12,11.078,43.774,11.078
			c11.612,0,21.06-9.448,21.06-21.06C479.608,479.316,470.16,469.868,458.548,469.868z M212.485,433.022
			c-6.663,53.017-66.388,80.922-111.226,52.804c-2.416-1.516-5.491-1.536-7.931-0.038c-12.062,7.405-25.477,11.16-39.874,11.16
			c-3.318,0-6.017-2.699-6.017-6.017s2.699-6.017,6.017-6.017c8.912,0,17.487-1.746,25.492-5.19c2.131-0.918,3.72-2.767,4.304-5.011
			c0.586-2.244,0.102-4.634-1.31-6.476c-36.349-47.392-2.982-116.236,56.478-117.476c23.63-0.476,46.141,10.583,60.272,29.627
			c5.893,7.939,18.032,6.831,22.34-2.01l7.176-14.726c13.319-27.333-0.492-48.63,12.098-86.155l18.467-6.212
			c8.702-2.926,15.619-9.506,18.977-18.053l55.222-140.56c1.519-3.865-0.384-8.232-4.25-9.751c-3.866-1.518-8.231,0.384-9.751,4.25
			l-55.221,140.56c-3.708,9.435-13.047,9.891-16.453,11.544l95.42-242.877c0.715-1.278,1.901-1.396,2.553-1.345
			c0.688,0.051,1.916,0.366,2.394,1.901l2.986,9.589l-18.83,47.93c-1.519,3.865,0.384,8.232,4.25,9.751
			c3.868,1.517,8.232-0.383,9.751-4.25l11.932-30.37c10.748,38.397,6.676,78.868-11.63,114.473
			C212.792,426.442,215.14,411.907,212.485,433.022z"/>
	</g>
</g>
<g>
	<g>
		<path d="M139.973,362.779c-33.673,0-61.066,27.394-61.066,61.067s27.393,61.068,61.066,61.068s61.068-27.394,61.068-61.068
			C201.041,390.173,173.646,362.779,139.973,362.779z M139.973,469.871c-25.378,0-46.024-20.646-46.024-46.025
			c0.001-25.378,20.647-46.024,46.024-46.024c25.379,0,46.025,20.646,46.025,46.024
			C185.998,449.225,165.352,469.871,139.973,469.871z"/>
	</g>
</g>
<g>
	<g>
		<path d="M372.028,362.779c-33.672,0-61.068,27.393-61.068,61.067c0,33.672,27.395,61.068,61.068,61.068
			s61.067-27.394,61.067-61.068C433.095,390.173,405.702,362.779,372.028,362.779z M372.028,469.871
			c-25.379,0-46.025-20.646-46.025-46.025c0-25.378,20.646-46.024,46.025-46.024c25.378,0,46.024,20.646,46.024,46.024
			C418.052,449.225,397.406,469.871,372.028,469.871z"/>
	</g>
</g>
<g>
</g>
<g>
</g>
<g>
</g>
<g>
</g>
<g>
</g>
<g>
</g>
<g>
</g>
<g>
</g>
<g>
</g>
<g>
</g>
<g>
</g>
<g>
</g>
<g>
</g>
<g>
</g>
<g>
</g>
</svg>
